HIERARCHY
ROOT Joint1
{
	OFFSET 0.000000 0.000000 0.000000
	CHANNELS 6 Xposition Yposition Zposition Xrotation Yrotation Zrotation
	JOINT Joint2
	{
		OFFSET -0.000000 0.000000 1.456275
		CHANNELS 6 Xposition Yposition Zposition Xrotation Yrotation Zrotation
		JOINT Joint3
		{
			OFFSET -0.000000 0.000002 1.471446
			CHANNELS 6 Xposition Yposition Zposition Xrotation Yrotation Zrotation
			JOINT Joint4
			{
				OFFSET 0.625745 0.000000 0.917755
				CHANNELS 6 Xposition Yposition Zposition Xrotation Yrotation Zrotation
				JOINT Joint5
				{
					OFFSET -0.629534 0.000001 0.940221
					CHANNELS 6 Xposition Yposition Zposition Xrotation Yrotation Zrotation
					JOINT Joint6
					{
						OFFSET -0.000001 0.113772 1.960660
						CHANNELS 6 Xposition Yposition Zposition Xrotation Yrotation Zrotation
						JOINT Joint7
						{
							OFFSET -0.669733 -0.113771 0.388340
							CHANNELS 6 Xposition Yposition Zposition Xrotation Yrotation Zrotation
							End Site
							{
								OFFSET 0.005509 0.005509 0.438980
							}
						}
					}
				}
			}
		}
	}
}
MOTION
Frames: 12
Frame Time: 0.041667
0.000000 0.000000 0.000000 -0.000000 1.019410 -134.307788 -0.000000 0.000000 1.456275 0.000005 -62.657417 0.000003 -0.000001 0.000002 1.471445 -0.000008 -1.133454 111.247908 0.625744 0.000000 0.917755 0.000000 19.772400 0.000000 -0.629534 0.000001 0.940221 0.000000 1.709737 -40.318156 -0.000001 0.113772 1.960660 -88.303875 -165.248641 -0.000005 -0.669733 -0.113771 0.388340 -0.814998 1.538579 -51.159411 
0.000000 0.000000 0.000000 -0.000000 1.019410 -134.116638 -0.000000 0.000000 1.456275 -0.000007 -62.632254 0.000003 -0.000001 0.000002 1.471446 -0.000006 -1.133459 111.089516 0.625745 0.000000 0.917755 0.000001 19.936446 -0.000002 -0.629534 0.000001 0.940221 0.000001 1.709736 -40.260796 -0.000001 0.113772 1.960660 -88.303875 -165.397785 -0.000002 -0.669733 -0.113771 0.388340 -0.810325 1.538088 -50.894636 
0.000000 0.000000 0.000000 -0.000000 1.019410 -133.820112 -0.000000 0.000000 1.456275 0.000007 -62.593233 -0.000004 -0.000000 0.000002 1.471445 -0.000005 -1.133455 110.843814 0.625745 0.000001 0.917755 0.000001 20.190910 -0.000001 -0.629534 0.000001 0.940221 0.000001 1.709736 -40.171809 -0.000001 0.113772 1.960661 -88.303882 -165.629137 -0.000000 -0.669733 -0.113771 0.388340 -0.803059 1.537361 -50.483919 
0.000000 0.000000 0.000000 -0.000000 1.019410 -133.436270 -0.000000 0.000000 1.456275 0.000001 -62.542717 0.000005 -0.000001 0.000002 1.471445 -0.000007 -1.133454 110.525780 0.625744 0.000000 0.917755 -0.000002 20.520289 0.000000 -0.629534 0.000001 0.940221 -0.000001 1.709737 -40.056628 -0.000001 0.113772 1.960660 -88.303882 -165.928586 -0.000001 -0.669733 -0.113772 0.388340 -0.793660 1.536503 -49.952278 
0.000000 0.000000 0.000000 -0.000000 1.019410 -132.983196 -0.000000 0.000000 1.456275 0.000006 -62.483083 -0.000003 -0.000000 0.000002 1.471446 -0.000005 -1.133454 110.150358 0.625744 0.000000 0.917755 -0.000001 20.909106 0.000002 -0.629534 0.000001 0.940221 0.000001 1.709733 -39.920656 -0.000001 0.113772 1.960661 -88.303882 -166.282062 -0.000001 -0.669734 -0.113771 0.388341 -0.782549 1.535600 -49.324703 
0.000000 0.000000 0.000000 -0.000000 1.019410 -132.478923 -0.000000 0.000000 1.456275 -0.000000 -62.416721 -0.000001 -0.000000 0.000002 1.471446 -0.000006 -1.133457 109.732521 0.625744 0.000001 0.917755 -0.000003 21.341846 0.000002 -0.629534 0.000001 0.940220 -0.000000 1.709732 -39.769326 -0.000001 0.113772 1.960661 -88.303882 -166.675481 0.000001 -0.669733 -0.113770 0.388340 -0.770174 1.534741 -48.626241 
0.000000 0.000000 0.000000 -0.000000 1.019410 -131.941524 -0.000000 0.000000 1.456275 0.000003 -62.345994 0.000001 -0.000001 0.000002 1.471445 -0.000009 -1.133455 109.287241 0.625745 0.000000 0.917755 0.000000 21.803019 0.000002 -0.629534 0.000001 0.940221 0.000001 1.709732 -39.608055 -0.000001 0.113772 1.960660 -88.303882 -167.094745 -0.000001 -0.669733 -0.113771 0.388340 -0.756972 1.533997 -47.881870 
0.000000 0.000000 0.000000 -0.000000 1.019410 -131.389043 -0.000000 0.000000 1.456275 0.000001 -62.273280 0.000005 -0.000000 0.000002 1.471446 -0.000003 -1.133455 108.829454 0.625745 0.000000 0.917755 0.000001 22.277130 -0.000002 -0.629534 0.000001 0.940221 0.000001 1.709734 -39.442273 -0.000001 0.113772 1.960661 -88.303882 -167.525757 -0.000003 -0.669733 -0.113771 0.388340 -0.743393 1.533401 -47.116639 
0.000000 0.000000 0.000000 -0.000000 1.019410 -130.839568 -0.000000 0.000000 1.456275 0.000001 -62.200962 -0.000002 -0.000001 0.000002 1.471446 -0.000007 -1.133454 108.374161 0.625744 0.000000 0.917755 -0.000001 22.748676 0.000002 -0.629533 0.000001 0.940221 0.000002 1.709735 -39.277372 -0.000001 0.113772 1.960660 -88.303882 -167.954461 -0.000003 -0.669733 -0.113771 0.388340 -0.729881 1.532995 -46.355538 
0.000000 0.000000 0.000000 -0.000000 1.019410 -130.284110 -0.000000 0.000000 1.456275 -0.000004 -62.127851 -0.000001 -0.000001 0.000002 1.471446 -0.000005 -1.133455 107.913915 0.625744 0.000000 0.917755 0.000001 23.225348 0.000002 -0.629534 0.000001 0.940221 0.000001 1.709738 -39.110681 -0.000001 0.113772 1.960661 -88.303882 -168.387809 -0.000002 -0.669733 -0.113772 0.388339 -0.716218 1.532761 -45.586158 
0.000000 0.000000 0.000000 -0.000000 1.019410 -129.605667 -0.000000 -0.000000 1.456275 -0.000000 -62.038574 -0.000002 -0.000001 0.000002 1.471446 -0.000003 -1.133454 107.351743 0.625745 0.000001 0.917755 -0.000001 23.807560 0.000003 -0.629534 0.000001 0.940221 -0.000002 1.709735 -38.907093 -0.000001 0.113772 1.960661 -88.303882 -168.917135 0.000002 -0.669733 -0.113771 0.388340 -0.699527 1.532726 -44.646433 
0.000000 0.000000 0.000000 -0.000000 1.019410 -128.660178 -0.000000 0.000000 1.456275 0.000003 -61.914142 -0.000004 -0.000000 0.000002 1.471446 -0.000008 -1.133452 106.568320 0.625744 0.000000 0.917755 -0.000002 24.618932 0.000001 -0.629534 0.000001 0.940221 -0.000001 1.709735 -38.623354 -0.000001 0.113772 1.960662 -88.303882 -169.654782 -0.000002 -0.669733 -0.113770 0.388340 -0.676267 1.533136 -43.336833 
